<svg xmlns="http://www.w3.org/2000/svg" viewBox="0 0 900 260" role="img" aria-label="Today a suggested tool sits outside the flowchart as a recommendation; next, it connects directly in as a live, executable node">
<style>text{font-family:"Source Sans 3", "Source Sans Pro", system-ui, -apple-system, "Segoe UI", sans-serif;fill:#1A1A1A}</style>
<path d="M132,90 H208" fill="none" stroke="rgba(17,17,17,0.5)" stroke-width="2" stroke-linecap="round"/>
<rect x="70" y="70" width="62" height="40" rx="20.0" ry="20.0" fill="rgba(255,255,255,0.92)" stroke="rgba(26,26,26,0.4)" stroke-width="1.2"/>
<circle cx="132" cy="90" r="3.8" fill="#FFFFFF" stroke="#454542" stroke-width="1.3"/>
<rect x="208" y="66" width="96" height="48" rx="8" ry="8" fill="rgba(255,255,255,0.92)" stroke="rgba(26,26,26,0.4)" stroke-width="1.4"/>
<circle cx="208" cy="90" r="3.8" fill="#FFFFFF" stroke="#454542" stroke-width="1.3"/>
<circle cx="304" cy="90" r="3.8" fill="#FFFFFF" stroke="#454542" stroke-width="1.3"/>
<text x="180" y="40" text-anchor="start" font-size="12.5" font-weight="700" letter-spacing="1.6" fill="#6B6B6B">NOW</text>
<rect x="138" y="160" width="84" height="40" rx="8" fill="none" stroke="#C7C7C7" stroke-width="1.6" stroke-dasharray="2 6"/>
<text x="180" y="185" text-anchor="middle" font-size="11.5" font-weight="600" letter-spacing="0" fill="#6B6B6B">suggested</text>
<path d="M180,160 V160" fill="none" stroke="rgba(17,17,17,0.5)" stroke-width="1.4" stroke-linecap="round" stroke-dasharray="2 5"/>
<text x="180" y="224" text-anchor="middle" font-size="11.5" font-weight="700" letter-spacing="1.6" fill="#6B6B6B">SUGGESTED ONLY</text>
<line x1="330" y1="130" x2="410" y2="130" stroke="#C7C7C7" stroke-width="1.6"/>
<path d="M403,123 L417,130 L403,137 Z" fill="#C7C7C7"/>
<text x="370" y="112" text-anchor="middle" font-size="11" font-weight="700" letter-spacing="1.6" fill="#6B6B6B">NEXT</text>
<path d="M512,90 H588" fill="none" stroke="rgba(17,17,17,0.5)" stroke-width="2" stroke-linecap="round"/>
<rect x="450" y="70" width="62" height="40" rx="20.0" ry="20.0" fill="rgba(255,255,255,0.92)" stroke="rgba(26,26,26,0.4)" stroke-width="1.2"/>
<circle cx="512" cy="90" r="3.8" fill="#FFFFFF" stroke="#454542" stroke-width="1.3"/>
<rect x="588" y="66" width="96" height="48" rx="8" ry="8" fill="rgba(255,255,255,0.92)" stroke="rgba(26,26,26,0.4)" stroke-width="1.4"/>
<circle cx="588" cy="90" r="3.8" fill="#FFFFFF" stroke="#454542" stroke-width="1.3"/>
<circle cx="684" cy="90" r="3.8" fill="#FFFFFF" stroke="#454542" stroke-width="1.3"/>
<text x="560" y="40" text-anchor="start" font-size="12.5" font-weight="700" letter-spacing="1.6" fill="#6B6B6B">NEXT</text>
<path d="M684,90 H724" fill="none" stroke="rgba(17,17,17,0.5)" stroke-width="2" stroke-linecap="round"/>
<rect x="724" y="66" width="100" height="48" rx="8" ry="8" fill="rgba(255,255,255,0.92)" stroke="rgba(26,26,26,0.4)" stroke-width="1.4"/>
<circle cx="724" cy="90" r="3.8" fill="#FFFFFF" stroke="#454542" stroke-width="1.3"/>
<circle cx="804" cy="90" r="4.5" fill="#1A1A1A"/>
<circle cx="804" cy="90" r="9" fill="none" stroke="#1A1A1A" stroke-width="1.2" stroke-opacity="0.4"/>
<text x="774.0" y="138" text-anchor="middle" font-size="11.5" font-weight="700" letter-spacing="1.6" fill="#6B6B6B">EXECUTABLE NODE</text>
</svg>
